<?xml version="1.0" encoding="UTF-8"?>
<svg id="Layer_1" data-name="Layer 1" xmlns="http://www.w3.org/2000/svg" viewBox="0 0 612 123">
  <defs>
    <style>
      .cls-1 {
        fill: #dd6e26;
      }

      .cls-2 {
        fill: #23356e;
      }

      .cls-3 {
        fill: #fff;
      }
    </style>
  </defs>
  <polygon class="cls-1" points="62.7 28.35 28 28.35 28 97.42 37.52 97.42 62.7 63.47 62.7 28.35"/>
  <polygon class="cls-2" points="119.5 28.35 88.01 28.35 62.7 63.47 62.7 97.42 119.5 97.42 119.5 28.35"/>
  <polygon class="cls-3" points="76.73 76.04 81.92 70.85 91.37 82.62 95.07 82.62 83.97 68.8 95.01 57.76 90.93 57.76 76.73 71.96 76.73 57.76 75.49 57.76 73.85 57.76 73.85 82.62 75.78 82.62 76.73 82.62 76.73 76.04"/>
  <path class="cls-3" d="M101.09,66.47h-9.16v7.1l2.89,3.91v-8h6.39c5.42,0,9.82,4.4,9.82,9.82s-4.4,9.82-9.82,9.82h-6.39v-3h-2.89v6.01h9.16c7.09,0,12.84-5.75,12.84-12.84h0c0-7.09-5.75-12.84-12.84-12.84Z"/>
  <polygon class="cls-2" points="195.31 28.35 195.31 69.27 156.61 28.35 138.64 28.35 138.64 97.42 156.61 97.42 156.61 55.59 195.31 97.42 213.28 97.42 213.28 28.35 195.31 28.35"/>
  <polygon class="cls-2" points="566.03 28.35 566.03 69.27 527.33 28.35 509.36 28.35 509.36 97.42 527.33 97.42 527.33 55.59 566.03 97.42 584 97.42 584 28.35 566.03 28.35"/>
  <rect class="cls-2" x="390.63" y="28.67" width="17.97" height="69.07"/>
  <polygon class="cls-2" points="364.8 28.67 343.8 77.51 322.66 28.67 303.08 28.67 332.98 97.74 354.67 97.74 384.36 28.67 364.8 28.67"/>
  <path class="cls-2" d="M280.44,28.35c-12.59-3.13-27.44-3.7-39.58,1.56-2.81,1.22-5.74,2.87-7.69,5.29-1.77,2.2-3.25,4.63-4.5,7.16-.25.5-3.05,7.4-2.44,7.4h18.2s3.84-12.3,18.69-12.3,19.87,10.92,19.87,18.6h-27.84s-18.99-.1-24.6,5.61c-5.61,5.71-5.9,8.85-5.9,15.64s5.8,22.73,27.84,22.73,30.5-9.35,30.5-9.35v7.04h17.61v-43.93s.89-20.21-20.17-25.45ZM260.83,86.11c-4.92,0-18.4.1-18.4-9.94s18.79-9.54,18.79-9.54h21.15c0,18.5-16.63,19.48-21.55,19.48Z"/>
  <path class="cls-2" d="M459.02,25.9c-42.5,0-39.88,41.32-39.88,41.32,0,0-.39,22.08,23.61,30.52,24.01,8.44,51.95-4.02,54.97-22.12h-18.37s-3.15,12.46-20.33,12.46-21.51-12.07-21.51-20.86h61.39s2.62-41.32-39.88-41.32ZM437.5,55.94s1.44-17.05,21.51-17.05,21.51,17.05,21.51,17.05h-43.03Z"/>
</svg>